<svg xmlns="http://www.w3.org/2000/svg" viewBox="0 0 576 512"><!--!Font Awesome Free 6.7.2 by @fontawesome - https://fontawesome.com License - https://fontawesome.com/license/free Copyright 2025 Fonticons, Inc.--><path fill="#6e72e6" d="M568.3 192c-29 .1-135 6.2-213.8 83-33.1 29.6-53.4 63.3-66.4 94.9-13.1-31.6-33.3-65.2-66.4-94.9-78.8-76.8-184.8-82.9-213.8-83-4.4 0-7.8 3.4-7.8 7.8 .2 27.9 7.1 126.1 88.8 199.3C172.8 480.9 256 480 288 480s115.2 1 199.2-80.9c81.6-73.2 88.5-171.4 88.8-199.3 0-4.4-3.3-7.8-7.8-7.8zM288 302.6c12.8-18.9 27.6-35.8 44.1-50.5 19.1-18.6 39.6-33.3 60.3-45.2-16.4-70.5-51.7-133.1-96.7-172.2-4.1-3.6-11-3.6-15.1 0-45 39.1-80.3 101.6-96.7 172.1 20.4 11.7 40.5 26.1 59.2 44.4a282.8 282.8 0 0 1 45 51.5z"/></svg>